<svg width="75" height="30" xmlns="http://www.w3.org/2000/svg" stroke="null" style="vector-effect: non-scaling-stroke;">
 <g stroke="null">
  <title stroke="null">Layer 1</title>
  <g stroke="null">
   <path stroke="null" d="m21.71038,0.11174c-2.73318,0 -4.96237,2.14419 -4.96237,4.77316c0,2.62896 2.22919,4.77316 4.96237,4.77316c2.73318,0 4.96237,-2.14419 4.96237,-4.77316c0,-2.62896 -2.22919,-4.77316 -4.96237,-4.77316zm-9.6146,0.59664c-2.2195,0 -4.03193,1.74332 -4.03193,3.87819c0,2.13487 1.81243,3.87819 4.03193,3.87819c2.2195,0 4.03193,-1.74332 4.03193,-3.87819c0,-2.13487 -1.81243,-3.87819 -4.03193,-3.87819zm9.6146,0.59664c2.062,0 3.72178,1.59649 3.72178,3.57987c0,1.98338 -1.65978,3.57987 -3.72178,3.57987c-2.062,0 -3.72178,-1.59649 -3.72178,-3.57987c0,-1.98338 1.65978,-3.57987 3.72178,-3.57987zm-17.3683,0.59664c-1.70582,0 -3.10148,1.34245 -3.10148,2.98322c0,1.64077 1.39567,2.98322 3.10148,2.98322c1.70582,0 3.10148,-1.34245 3.10148,-2.98322c0,-1.64077 -1.39567,-2.98322 -3.10148,-2.98322zm7.75371,0c1.54832,0 2.79133,1.19562 2.79133,2.6849c0,1.48928 -1.24302,2.6849 -2.79133,2.6849c-1.54832,0 -2.79133,-1.19562 -2.79133,-2.6849c0,-1.48928 1.24302,-2.6849 2.79133,-2.6849zm-7.75371,1.19329c1.03464,0 1.86089,0.79475 1.86089,1.78993c0,0.99519 -0.82625,1.78993 -1.86089,1.78993c-1.03464,0 -1.86089,-0.79475 -1.86089,-1.78993c0,-0.99519 0.82625,-1.78993 1.86089,-1.78993zm0,5.96645c-2.38426,0 -4.34208,1.88316 -4.34208,4.17651l0,7.15973c0,0.32862 0.27865,0.59664 0.6203,0.59664l6.20296,0l0,2.98322c0,0.32862 0.27865,0.59664 0.6203,0.59664l6.20296,0l0,4.77316c0,0.32862 0.27865,0.59664 0.6203,0.59664l13.64652,0c0.34165,0 0.6203,-0.26802 0.6203,-0.59664l0,-10.7396c0,-3.95976 -3.32682,-7.15973 -7.44356,-7.15973c-1.58951,0 -2.99002,0.54537 -4.18458,1.3541c-0.79961,-1.84121 -2.63869,-3.14404 -4.80972,-3.14404c-1.58467,0 -2.95368,0.67588 -3.91562,1.70137c-0.72206,-1.3611 -2.17104,-2.29801 -3.83808,-2.29801zm0,1.19329c1.49986,0 2.79376,1.04879 3.0506,2.43319c0.04361,0.24705 0.24715,0.44049 0.50642,0.48244c0.25684,0.04195 0.51368,-0.07458 0.6421,-0.29599c0.70753,-1.20028 1.98446,-2.023 3.55459,-2.023c1.88754,0 3.49644,1.24223 3.92532,2.94593c0.05088,0.20276 0.2108,0.36591 0.41918,0.42884c0.20838,0.0606 0.43372,0.01399 0.59849,-0.12586c1.06613,-0.91827 2.4618,-1.45898 4.05131,-1.45898c3.45282,0 6.20296,2.64528 6.20296,5.96645l0,10.14296l-12.40593,0l0,-4.77316c0,-0.32862 -0.27865,-0.59664 -0.6203,-0.59664l-6.20296,0l0,-2.98322c0,-0.32862 -0.27865,-0.59664 -0.6203,-0.59664l-6.20296,0l0,-6.56309c0,-1.64311 1.39324,-2.98322 3.10148,-2.98322z"/>
  </g>
  <text xml:space="preserve" text-anchor="start" font-family="'Cabin'" font-size="30" id="svg_5" y="25.67328" x="28.32503" stroke-width="0" stroke="#000" fill="#000000">Lab</text>
 </g>

</svg>